<?xml version="1.0" encoding="utf-8"?>
<svg xmlns="http://www.w3.org/2000/svg" viewBox="0 0 24 24" width="48" height="48">
  <path d="M21,9c0-3.278-2.687-6-6-6c-1.019,0-2,0.5-3,0.5S10.019,3,9,3C5.687,3,3,5.722,3,9c0,0.977,0.162,2.436,0.389,4h17.223C20.838,11.436,21,9.977,21,9z" opacity=".35" fill="#5B5B5B" />
  <path d="M6.708,20.952c0.979,0,1.852-0.611,2.174-1.535C9.497,17.654,10.647,15,12,15s2.503,2.654,3.118,4.417c0.322,0.924,1.196,1.535,2.174,1.535c1.105,0,2.055-0.777,2.266-1.862c0.307-1.584,0.742-3.938,1.053-6.09H3.389c0.312,2.153,0.746,4.506,1.053,6.09C4.652,20.175,5.603,20.952,6.708,20.952z" fill="#5B5B5B" />
</svg>