<?xml version="1.0" encoding="utf-8"?>
<svg xmlns="http://www.w3.org/2000/svg" viewBox="0 0 24 24" width="48" height="48">
  <path d="M19.75,15c0-0.56-0.31-1.042-0.765-1.3C18.826,9.974,15.765,7,12,7c-3.726,0-6.763,2.913-6.979,6.585C4.429,13.786,4,14.34,4,15c0,0.817,0.654,1.478,1.467,1.497C6.473,19.128,9.015,21,12,21c2.995,0,5.543-1.885,6.543-4.53C19.231,16.334,19.75,15.728,19.75,15z" opacity=".35" fill="#5B5B5B" />
  <path d="M20.001,12.992C20.318,10.6,19.34,8.119,17.6,6.47c0.339-0.597,0.5-1.309,0.334-2.082C17.628,2.96,16.268,2,14.806,2l0,0c-0.536,0-1.066,0.087-1.574,0.257C12.83,2.392,12.349,2.553,12,2.672c-0.349-0.119-0.83-0.281-1.232-0.416C10.26,2.087,9.729,2,9.194,2H9.193C7.732,2,6.372,2.96,6.066,4.389C5.9,5.161,6.061,5.873,6.4,6.47C4.688,7.886,3.666,11.032,4,13c0,0.552,0.448,1,1,1s1-0.448,1-1c0.23-2.865,3.558-4.488,6-5.03c2.523,0.526,5.612,2.168,6,5.03c0,0.552,0.448,1,1,1s1-0.448,1-1L20.001,12.992z" fill="#5B5B5B" />
  <path d="M11,18.5c0-0.828-0.672-1.5-1.5-1.5c-0.184,0-0.357,0.038-0.52,0.098C8.984,17.064,9,17.035,9,17c0-0.552-0.448-1-1-1s-1,0.448-1,1c0,0.089,0.029,0.168,0.05,0.25C6.428,17.589,6,18.241,6,19c0,1.105,0.895,2,2,2c0.031,0,0.059-0.008,0.089-0.009C8.293,21.577,8.845,22,9.5,22c0.828,0,1.5-0.672,1.5-1.5c0-0.386-0.15-0.734-0.389-1C10.85,19.234,11,18.886,11,18.5z" fill="#5B5B5B" />
  <path d="M16.95,17.25C16.971,17.168,17,17.089,17,17c0-0.552-0.448-1-1-1s-1,0.448-1,1c0,0.035,0.016,0.064,0.02,0.098C14.857,17.038,14.684,17,14.5,17c-0.828,0-1.5,0.672-1.5,1.5c0,0.386,0.15,0.734,0.389,1C13.15,19.766,13,20.114,13,20.5c0,0.828,0.672,1.5,1.5,1.5c0.655,0,1.207-0.423,1.411-1.009C15.941,20.992,15.969,21,16,21c1.105,0,2-0.895,2-2C18,18.241,17.572,17.589,16.95,17.25z" fill="#5B5B5B" />
  <circle cx="23" cy="17" r="1" fill="#5B5B5B" />
  <circle cx="21.5" cy="20.5" r="1.5" fill="#5B5B5B" />
  <circle cx="3" cy="21" r="1" fill="#5B5B5B" />
  <circle cx="1.5" cy="17.5" r="1.5" fill="#5B5B5B" />
</svg>