<?xml version="1.0" encoding="utf-8"?>
<svg xmlns="http://www.w3.org/2000/svg" viewBox="0 0 24 24" width="48" height="48">
  <path d="M20.458,10.821c0.096-0.36,0.028-0.732-0.188-1.048l-0.314-0.458c-0.047-0.068-0.075-0.146-0.083-0.227l-0.053-0.529c-0.035-0.368-0.23-0.704-0.55-0.947l-0.458-0.346c-0.07-0.054-0.125-0.12-0.162-0.196L18.413,6.58c-0.163-0.34-0.467-0.606-0.854-0.749l-0.559-0.207c-0.085-0.032-0.162-0.081-0.223-0.142l-0.396-0.402c-0.275-0.279-0.657-0.451-1.077-0.482l-0.604-0.045c-0.091-0.007-0.181-0.033-0.26-0.075l-0.52-0.274c-0.359-0.191-0.779-0.25-1.195-0.166l-0.589,0.121c-0.046,0.009-0.092,0-0.138,0v17.864c0.594-0.001,1.188-0.133,1.723-0.4l1.099-0.557c0.292-0.149,0.528-0.38,0.662-0.65l0.276-0.548c0.045-0.091,0.118-0.168,0.213-0.224l0.559-0.335c0.286-0.171,0.498-0.413,0.613-0.702l0.225-0.568c0.036-0.092,0.101-0.173,0.185-0.235l0.521-0.378c0.271-0.197,0.464-0.471,0.541-0.77l0.155-0.591c0.023-0.09,0.074-0.174,0.145-0.241l0.457-0.432c0.251-0.238,0.401-0.548,0.424-0.871l0.043-0.61c0.006-0.084,0.035-0.166,0.085-0.239l0.337-0.496c0.208-0.306,0.276-0.666,0.192-1.013l-0.14-0.581c-0.019-0.078-0.018-0.156,0.003-0.231L20.458,10.821z" opacity=".35" fill="#5B5B5B" />
  <path d="M12,2c-1.105,0-2,0.895-2,2v0.244L9.56,4.477C9.479,4.519,9.391,4.545,9.298,4.552L8.693,4.598C8.273,4.629,7.892,4.801,7.615,5.08L7.222,5.481C7.16,5.543,7.083,5.592,6.998,5.624l-0.56,0.207C6.052,5.975,5.749,6.241,5.586,6.58L5.349,7.072C5.313,7.145,5.258,7.212,5.187,7.265L4.729,7.613C4.412,7.854,4.217,8.189,4.18,8.559L4.128,9.088C4.12,9.169,4.091,9.248,4.044,9.317L3.729,9.773c-0.216,0.316-0.283,0.688-0.188,1.048l0.142,0.529c0.02,0.075,0.021,0.152,0.002,0.23l-0.14,0.581c-0.084,0.348-0.016,0.708,0.193,1.013l0.335,0.493c0.051,0.075,0.08,0.158,0.086,0.241l0.042,0.608c0.022,0.323,0.173,0.633,0.425,0.872l0.454,0.43c0.072,0.069,0.123,0.153,0.146,0.243l0.154,0.59c0.079,0.3,0.271,0.573,0.542,0.77l0.521,0.379c0.085,0.062,0.149,0.144,0.186,0.235l0.227,0.569c0.112,0.283,0.329,0.532,0.61,0.7l0.563,0.339c0.094,0.056,0.167,0.133,0.212,0.225l0.275,0.547c0.138,0.275,0.368,0.501,0.664,0.652l1.002,0.513c0.556,0.295,1.183,0.443,1.811,0.443c0.002,0,0.004,0,0.006,0V4.158c0.046,0,0.092,0.009,0.138,0l0.589-0.121c0.416-0.084,0.836-0.025,1.195,0.166L14,4.245V4C14,2.895,13.105,2,12,2z" fill="#5B5B5B" />
  <ellipse cx="16.5" cy="8" rx="1.5" ry="1" fill="#5B5B5B" />
  <ellipse cx="17.5" cy="12" rx="1.5" ry="1" fill="#5B5B5B" />
  <ellipse cx="15.5" cy="16" rx="1.5" ry="1" fill="#5B5B5B" />
</svg>