<?xml version="1.0" encoding="utf-8"?>
<svg xmlns="http://www.w3.org/2000/svg" viewBox="0 0 24 24" width="48" height="48">
  <path d="M9,12.907C9,9.093,11.686,6,15,6s6,3.093,6,6.907v1.151v4.921c0,1.786-1.524,3.009-3.296,3.009C10,21.988,9,19,9,13.663V12.907z" opacity=".35" fill="#5B5B5B" />
  <path d="M11.97,20.99C11.88,21,11.79,21,11.7,21C4,21,3,18.38,3,13.71v-0.66C3,9.71,5.69,7,9,7c0.81,0,1.59,0.16,2.3,0.47C9.9,8.73,9,10.7,9,12.91v0.75C9,17.2,9.44,19.7,11.97,20.99z" fill="#5B5B5B" />
  <path d="M10.17,4.84L8.89,5.48c0.3,0.54,0.54,1.09,0.72,1.64c0.22,0.67,0.35,1.35,0.38,2.02c-0.3,0.5-0.53,1.04-0.69,1.62C9.07,10.92,8.8,11,8.5,11C7.67,11,7,10.33,7,9.5c0-0.68-0.16-1.38-0.48-2.08C6.1,6.48,5.41,5.53,4.44,4.56c-0.59-0.58-0.59-1.54,0-2.12c0.59-0.59,1.53-0.59,2.12,0C6.75,2.63,6.93,2.83,7.1,3.02l1.73-0.86c0.74-0.37,1.64-0.07,2.01,0.67S10.91,4.47,10.17,4.84z" opacity=".35" fill="#5B5B5B" />
  <path d="M19.17,4.84l-1.28,0.64c0.3,0.54,0.54,1.09,0.72,1.64c0.04,0.12,0.08,0.24,0.11,0.36C17.7,6.55,16.41,6,15,6c-0.1,0-0.2,0-0.3,0.02c-0.35-0.48-0.77-0.97-1.26-1.46c-0.59-0.58-0.59-1.54,0-2.12c0.59-0.59,1.53-0.59,2.12,0c0.19,0.19,0.37,0.39,0.54,0.58l1.73-0.86c0.74-0.37,1.64-0.07,2.01,0.67C20.21,3.57,19.91,4.47,19.17,4.84z" fill="#5B5B5B" />
</svg>