<?xml version="1.0" encoding="utf-8"?>
<svg xmlns="http://www.w3.org/2000/svg" viewBox="0 0 24 24" width="48" height="48">
  <path d="M12,4.5C12,3.119,10.881,2,9.5,2C8.275,2,7.26,2.883,7.046,4.046C5.33,4.271,4,5.723,4,7.5c0,0.165,0.026,0.323,0.049,0.482C2.812,8.893,2,10.347,2,12s0.812,3.107,2.049,4.018C4.026,16.177,4,16.335,4,16.5c0,1.777,1.33,3.229,3.046,3.454C7.26,21.117,8.275,22,9.5,22c1.381,0,2.5-1.119,2.5-2.5C12,19.352,12,4.654,12,4.5z" opacity=".35" fill="#5B5B5B" />
  <path d="M12,4.5C12,3.119,13.119,2,14.5,2c1.225,0,2.24,0.883,2.454,2.046C18.67,4.271,20,5.723,20,7.5c0,0.165-0.026,0.323-0.049,0.482C21.188,8.893,22,10.347,22,12s-0.812,3.107-2.049,4.018C19.974,16.177,20,16.335,20,16.5c0,1.777-1.33,3.229-3.046,3.454C16.74,21.117,15.725,22,14.5,22c-1.381,0-2.5-1.119-2.5-2.5C12,19.352,12,4.654,12,4.5z" opacity=".35" fill="#5B5B5B" />
  <path d="M10,8c0-1.105-0.895-2-2-2S6,6.895,6,8c0,0.738,0.405,1.376,1,1.723V10H2.43C2.15,10.61,2,11.29,2,12h6c0.55,0,1-0.45,1-1V9.723C9.595,9.376,10,8.738,10,8z" fill="#5B5B5B" />
  <path d="M17,14.277c0.595,0.346,1,0.984,1,1.723c0,1.105-0.895,2-2,2s-2-0.895-2-2c0-0.738,0.405-1.376,1-1.723V13c0-0.55,0.45-1,1-1h6c0-1.132-0.387-2.165-1.024-3h-3.253c-0.346,0.595-0.984,1-1.723,1c-1.105,0-2-0.895-2-2c0-1.105,0.895-2,2-2c0.738,0,1.376,0.405,1.723,1h2.231c-0.223-1.542-1.448-2.751-2.999-2.954C16.74,2.883,15.725,2,14.5,2C13.119,2,12,3.119,12,4.5c0,0.076,0,14.741,0,15c0,1.381,1.119,2.5,2.5,2.5c1.225,0,2.24-0.883,2.454-2.046C18.67,19.729,20,18.277,20,16.5c0-0.165-0.026-0.323-0.049-0.482c0.702-0.517,1.26-1.213,1.617-2.018H17V14.277z" fill="#5B5B5B" />
  <path d="M8,14c-0.738,0-1.376,0.405-1.723,1H3.03c0.28,0.39,0.63,0.73,1.02,1.02C4.03,16.18,4,16.33,4,16.5c0,0.17,0.01,0.34,0.04,0.5h2.237C6.624,17.595,7.262,18,8,18c1.105,0,2-0.895,2-2C10,14.895,9.105,14,8,14z" fill="#5B5B5B" />
</svg>