<?xml version="1.0" encoding="utf-8"?>
<svg xmlns="http://www.w3.org/2000/svg" viewBox="0 0 24 24" width="48" height="48">
  <path d="M11.5,3C6.107,3,2.806,5.16,2.668,5.252C1.981,5.709,1.797,6.634,2.251,7.323c0.455,0.689,1.384,0.878,2.074,0.429C4.353,7.735,7.067,6,11.5,6c1.058,0,2.036,0.085,2.917,0.239C13.549,7.059,13,8.214,13,9.5c0,2.481,2.019,4.5,4.5,4.5S22,11.981,22,9.5C22,5.551,17.879,3,11.5,3z M17.5,11c-0.827,0-1.5-0.673-1.5-1.5S16.673,8,17.5,8S19,8.673,19,9.5S18.327,11,17.5,11z" opacity=".35" fill="#5B5B5B" />
  <path d="M12.5,21C6.121,21,2,18.449,2,14.5h3c0,2.061,3.084,3.5,7.5,3.5c4.433,0,7.147-1.735,7.175-1.752c0.689-0.45,1.618-0.26,2.074,0.429c0.454,0.689,0.27,1.614-0.417,2.071C21.194,18.84,17.893,21,12.5,21z" fill="#5B5B5B" />
  <path d="M6.5,19C4.019,19,2,16.981,2,14.5S4.019,10,6.5,10s4.5,2.019,4.5,4.5S8.981,19,6.5,19z M6.5,13C5.673,13,5,13.673,5,14.5S5.673,16,6.5,16S8,15.327,8,14.5S7.327,13,6.5,13z" fill="#5B5B5B" />
</svg>