<?xml version="1.0" encoding="utf-8"?>
<svg xmlns="http://www.w3.org/2000/svg" viewBox="0 0 24 24" width="48" height="48">
  <path d="M9.843,18.4L18.4,9.843c1.371,1.025,3.315,0.928,4.561-0.318c1.367-1.367,1.367-3.583,0-4.95c-0.693-0.693-1.605-1.032-2.514-1.021c0.01-0.909-0.328-1.821-1.021-2.514c-1.367-1.367-3.583-1.367-4.95,0c-1.246,1.246-1.343,3.19-0.318,4.561L5.6,14.157c-1.371-1.025-3.315-0.928-4.561,0.318c-1.367,1.367-1.367,3.583,0,4.95c0.693,0.693,1.605,1.032,2.514,1.021c-0.01,0.909,0.328,1.821,1.021,2.514c1.367,1.367,3.583,1.367,4.95,0C10.771,21.714,10.868,19.77,9.843,18.4z" opacity=".35" fill="#5B5B5B" />
  <path d="M9.843,18.4L18.4,9.843c1.356,1.014,3.273,0.93,4.52-0.278c0.519-0.502,0.812-1.207,0.858-1.927c0.13-2.028-0.466-2.87-1.22-3.397c0.656,0.972,0.602,2.365-0.304,3.163c-0.834,0.734-2.212,0.803-3.127,0.343c-0.594-0.299-1.317-0.141-1.788,0.329l-9.273,9.273c-0.47,0.47-0.639,1.193-0.347,1.79c0.448,0.918,0.545,2.356-0.314,3.114c-0.912,0.805-2.191,0.96-3.163,0.304c0.528,0.754,1.369,1.351,3.397,1.22c0.72-0.046,1.425-0.34,1.927-0.858C10.773,21.672,10.857,19.755,9.843,18.4z" fill="#5B5B5B" />
</svg>