<?xml version="1.0" encoding="utf-8"?>
<svg xmlns="http://www.w3.org/2000/svg" viewBox="0 0 24 24" width="48" height="48">
  <circle cx="12" cy="5" r="3" opacity=".35" fill="#5B5B5B" />
  <path d="M21,4l-0.01,0.01c0.006-0.999-0.727-1.868-1.742-1.994c-1.091-0.144-2.097,0.64-2.232,1.736L16.76,5.798C16.46,8.194,14.414,10,12,10S7.54,8.194,7.24,5.798L6.984,3.752c-0.137-1.097-1.146-1.88-2.232-1.736C3.737,2.142,3.005,3.011,3.01,4.009L3,4l0.012,0.095c0.003,0.051-0.003,0.101,0.004,0.153l0.256,2.046C3.285,6.404,3.31,6.509,3.327,6.617l0.805,6.437C4.628,17.022,8.001,20,12,20s7.372-2.978,7.868-6.946l0.805-6.437c0.018-0.108,0.042-0.213,0.056-0.322l0.256-2.046c0.006-0.052,0.001-0.102,0.004-0.153L21,4z" fill="#5B5B5B" />
  <path d="M14,13h-2h-2c-3.859,0-7,3.14-7,7c0,1.104,0.896,2,2,2s2-0.896,2-2c0-1.654,1.346-3,3-3h2h2c1.654,0,3,1.346,3,3c0,1.104,0.896,2,2,2s2-0.896,2-2C21,16.14,17.859,13,14,13z" opacity=".35" fill="#5B5B5B" />
</svg>