<?xml version="1.0" encoding="utf-8"?>
<svg xmlns="http://www.w3.org/2000/svg" viewBox="0 0 24 24" width="48" height="48">
  <path d="M20,11l-4,1v2h-4V9.5C12,8.12,13.12,7,14.5,7c0.34,0.03,1.08-0.02,1.43,0c1,0,1.94,0.5,2.5,1.34l1.4,2.11C19.94,10.62,20,10.81,20,11z" opacity=".35" fill="#5B5B5B" />
  <path d="M21,17H7c0-1.105-0.895-2-2-2H3c-1.105,0-2,0.895-2,2v2c0,1.105,0.895,2,2,2h18c1.105,0,2-0.895,2-2S22.105,17,21,17z" opacity=".35" fill="#5B5B5B" />
  <path d="M2,11.499C2,12.88,3.119,14,4.499,14C5.882,14,7,12.88,7,11.499C7,10.12,5.882,9,4.499,9C3.119,9,2,10.12,2,11.499z" opacity=".35" fill="#5B5B5B" />
  <path d="M12,3.499C12,4.88,13.119,6,14.499,6C15.882,6,17,4.88,17,3.499C17,2.12,15.882,1,14.499,1C13.119,1,12,2.12,12,3.499z" opacity=".35" fill="#5B5B5B" />
  <path d="M16,11c0,0-1.349,0-2,0h-3.5C9.119,11,8,12.119,8,13.5S9.119,16,10.5,16H14c1.381,0,2.5-1.119,2.5-2.5C16.5,12.77,16,11,16,11z" fill="#5B5B5B" />
  <path d="M20.997,15.997L13,15.996c0,0-0.119-0.674-0.119-1.505s0.674-1.504,1.505-1.504c0.075,0,0.157,0.007,0.229,0.018l6.535,0.999c0.547,0.085,0.923,0.597,0.838,1.144C21.911,15.643,21.483,15.998,20.997,15.997z" fill="#5B5B5B" />
  <path d="M20.998,10.001h-3.185c-0.385,0-0.762,0.111-1.086,0.32L13.664,12.3c-0.055,0.036-0.116,0.081-0.168,0.126c-0.628,0.544-0.696,1.493-0.152,2.121s1.494,0.695,2.121,0.152l2.646-2.293l3.021-0.409C21.622,11.931,22,11.512,22,11.004C22,10.45,21.552,10.002,20.998,10.001z" fill="#5B5B5B" />
</svg>