<?xml version="1.0" encoding="utf-8"?>
<svg xmlns="http://www.w3.org/2000/svg" viewBox="0 0 24 24" width="48" height="48">
  <path d="M21.427,12.015l-1.73-2.106C19.215,5.505,16,2,11,2c-5.637,0-8.977,3.928-8.977,9c0,3.638,1.887,5.297,2.656,7.832C5.067,20.11,6.222,21,7.557,21h8.628c1.429,0,2.66-1.009,2.941-2.41l0.524-2.614l1.124-0.611C21.995,14.7,22.309,13.089,21.427,12.015z" opacity=".35" fill="#5B5B5B" />
  <path d="M11,6c-2.758,0-5,2.242-5,5s2.242,5,5,5s5-2.242,5-5S13.758,6,11,6z M13,12h-1v1c0,0.55-0.45,1-1,1s-1-0.45-1-1v-1H9c-0.55,0-1-0.45-1-1s0.45-1,1-1h1V9c0-0.55,0.45-1,1-1s1,0.45,1,1v1h1c0.55,0,1,0.45,1,1S13.55,12,13,12z" fill="#5B5B5B" />
</svg>