<?xml version="1.0" encoding="utf-8"?>
<svg xmlns="http://www.w3.org/2000/svg" viewBox="0 0 24 24" width="48" height="48">
  <path d="M23,13.079c0-2.498-1.091-4.871-2.988-6.497l-2.549-2.185C16.495,3.567,15,4.255,15,5.53l0,11.298c0,2.089,1.527,3.955,3.607,4.153C20.993,21.209,23,19.339,23,17V13.079z" opacity=".35" fill="#5B5B5B" />
  <path d="M1,13.079c0-2.498,1.091-4.871,2.988-6.497l2.549-2.185C7.505,3.567,9,4.255,9,5.53l0,11.298c0,2.089-1.527,3.955-3.607,4.153C3.007,21.209,1,19.339,1,17V13.079z" opacity=".35" fill="#5B5B5B" />
  <path d="M13,7.649V2c0-0.553-0.448-1-1-1s-1,0.447-1,1v5.649l-2,2.5v3.202l3-3.75l3,3.75c0-0.932,0-2.064,0-3.202L13,7.649z" fill="#5B5B5B" />
</svg>