<?xml version="1.0" encoding="utf-8"?>
<svg xmlns="http://www.w3.org/2000/svg" viewBox="0 0 24 24" width="48" height="48">
  <path d="M12,9l3,3l2.446-2.446C17.9,9.832,18.429,10,19,10c1.657,0,3-1.343,3-3c0-1.356-0.905-2.488-2.14-2.86C19.488,2.905,18.356,2,17,2c-1.657,0-3,1.343-3,3c0,0.571,0.168,1.1,0.446,1.554L12,9z" fill="#5B5B5B" />
  <path d="M12,15l-3-3l-2.446,2.446C6.1,14.168,5.571,14,5,14c-1.657,0-3,1.343-3,3c0,1.356,0.905,2.488,2.14,2.86C4.512,21.095,5.644,22,7,22c1.657,0,3-1.343,3-3c0-0.571-0.168-1.1-0.446-1.554L12,15z" fill="#5B5B5B" />
  <path d="M19.86,19.86C21.095,19.488,22,18.356,22,17c0-1.657-1.343-3-3-3c-0.571,0-1.1,0.168-1.554,0.446L9.554,6.554C9.832,6.1,10,5.571,10,5c0-1.657-1.343-3-3-3C5.644,2,4.512,2.905,4.14,4.14C2.905,4.512,2,5.644,2,7c0,1.657,1.343,3,3,3c0.571,0,1.1-0.168,1.554-0.446l7.891,7.891C14.168,17.9,14,18.429,14,19c0,1.657,1.343,3,3,3C18.356,22,19.488,21.095,19.86,19.86z" opacity=".35" fill="#5B5B5B" />
</svg>