<?xml version="1.0" encoding="utf-8"?>
<svg xmlns="http://www.w3.org/2000/svg" viewBox="0 0 24 24" width="48" height="48">
  <path d="M10.93,5c-0.81,1.04-1.36,2.41-1.66,4H9C6.24,9,4,6.76,4,4V3c0-0.55,0.45-1,1-1h2c0.55,0,1,0.45,1,1v1c0,0.55,0.45,1,1,1H10.93z" fill="#5B5B5B" />
  <path d="M15,3c-1.73,0-3.086,0.748-4.068,2.002L8.82,6.966l0.452,2.007C9.091,9.917,9,10.936,9,12v1c0,0.569-0.474,0.995-1.043,1C5.22,14.023,3,16.257,3,19v2c0,0.552,0.448,1,1,1h2c0.552,0,1-0.448,1-1v-2.5c1.7,1.13,4.13,1.5,6.17,1.5C17.5,20,21,16.32,21,12C21,7.31,19,3,15,3z" opacity=".35" fill="#5B5B5B" />
</svg>