<?xml version="1.0" encoding="utf-8"?>
<svg xmlns="http://www.w3.org/2000/svg" viewBox="0 0 24 24" width="48" height="48">
  <path d="M8,4H5C3.895,4,3,4.895,3,6v5h7V6C10,4.895,9.105,4,8,4z" opacity=".35" fill="#5B5B5B" />
  <path d="M16.5,14H3v-3h13.5c0.828,0,1.5,0.672,1.5,1.5v0C18,13.328,17.328,14,16.5,14z" fill="#5B5B5B" />
  <path d="M3,13v1c0,1,0.763,2.763,2.121,4.121L6,19h8l0.336-0.504C15.421,16.869,16,14.956,16,13v0L3,13C3,13,3,14,3,13z" opacity=".35" fill="#5B5B5B" />
  <path d="M14.131,22H7c-0.552,0-1-0.448-1-1v-2h8l0.964,1.445C15.407,21.11,14.93,22,14.131,22z" fill="#5B5B5B" />
  <path d="M21,6h-4c-0.552,0-1-0.448-1-1V3c0-0.552,0.448-1,1-1h4c0.552,0,1,0.448,1,1v2C22,5.552,21.552,6,21,6z" fill="#5B5B5B" />
  <path d="M17,6v2.172c0,0.675,0.816,1.013,1.293,0.536l0,0c0.391-0.391,1.024-0.391,1.414,0l0,0C20.184,9.184,21,8.846,21,8.172V6H17z" opacity=".35" fill="#5B5B5B" />
  <path d="M6.5,2L6.5,2C5.672,2,5,2.672,5,3.5V4h3V3.5C8,2.672,7.328,2,6.5,2z" fill="#5B5B5B" />
</svg>